<svg viewBox="0 0 512 512" xmlns="http://www.w3.org/2000/svg"><rect width="512" height="512" fill="#3b82f6"/><path d="M403.62 128.21c-4.26-12.58-16.19-21.54-30.29-21.54h-234.66c-14.1 0-26.03 8.96-30.29 21.54l-44.38 127.79v170.67c0 11.78 9.55 21.33 21.33 21.33h21.33c11.78 0 21.33-9.55 21.33-21.33v-21.33h256v21.33c0 11.78 9.55 21.33 21.33 21.33h21.33c11.78 0 21.33-9.55 21.33-21.33v-170.67l-44.38-127.79zM138.67 341.33c-17.7 0-32-14.3-32-32s14.3-32 32-32 32 14.3 32 32-14.3 32-32 32zm234.66 0c-17.7 0-32-14.3-32-32s14.3-32 32-32 32 14.3 32 32-14.3 32-32 32zm-266.66-106.66l32-96h294.66l32 96h-358.66z" fill="white"/></svg>
